<?xml version="1.0" encoding="UTF-8" standalone="no"?>
<!-- Created with Inkscape (http://www.inkscape.org/) -->

<svg
   xmlns:dc="http://purl.org/dc/elements/1.1/"
   xmlns:cc="http://creativecommons.org/ns#"
   xmlns:rdf="http://www.w3.org/1999/02/22-rdf-syntax-ns#"
   xmlns:svg="http://www.w3.org/2000/svg"
   xmlns="http://www.w3.org/2000/svg"
   xmlns:sodipodi="http://sodipodi.sourceforge.net/DTD/sodipodi-0.dtd"
   xmlns:inkscape="http://www.inkscape.org/namespaces/inkscape"
   width="256.61066mm"
   height="149.29169mm"
   viewBox="0 0 256.61066 149.29169"
   version="1.1"
   id="svg8"
   inkscape:version="0.92.5 (2060ec1f9f, 2020-04-08)"
   sodipodi:docname="pangyplot.svg">
  <defs
     id="defs2" />
  <sodipodi:namedview
     id="base"
     pagecolor="#ffffff"
     bordercolor="#666666"
     borderopacity="1.0"
     inkscape:pageopacity="0.0"
     inkscape:pageshadow="2"
     inkscape:zoom="0.24748737"
     inkscape:cx="235.54069"
     inkscape:cy="968.84296"
     inkscape:document-units="mm"
     inkscape:current-layer="layer1"
     showgrid="false"
     inkscape:window-width="1920"
     inkscape:window-height="1043"
     inkscape:window-x="0"
     inkscape:window-y="16"
     inkscape:window-maximized="1" />
  <metadata
     id="metadata5">
    <rdf:RDF>
      <cc:Work
         rdf:about="">
        <dc:format>image/svg+xml</dc:format>
        <dc:type
           rdf:resource="http://purl.org/dc/dcmitype/StillImage" />
        <dc:title></dc:title>
      </cc:Work>
    </rdf:RDF>
  </metadata>
  <g
     inkscape:label="Layer 1"
     inkscape:groupmode="layer"
     id="layer1"
     transform="translate(422.09773,175.20697)">
    <path
       style="fill:#483e37;fill-opacity:1;stroke:none;stroke-width:14.75244713;stroke-linecap:round;stroke-linejoin:round;stroke-miterlimit:4;stroke-dasharray:none;stroke-dashoffset:0;stroke-opacity:1"
       d="m -421.03761,-147.34863 v 121.394376 h 34.68299 V -170.15249 Z"
       id="path886"
       inkscape:connector-curvature="0"
       sodipodi:nodetypes="ccccc" />
    <text
       xml:space="preserve"
       style="font-style:normal;font-weight:normal;font-size:10.58333302px;line-height:1.25;font-family:sans-serif;letter-spacing:0px;word-spacing:0px;fill:#483e37;fill-opacity:1;stroke:none;stroke-width:0.26458332"
       x="-384.1955"
       y="-26.761946"
       id="text900"><tspan
         sodipodi:role="line"
         id="tspan898"
         x="-384.1955"
         y="-26.761946"
         style="font-style:normal;font-variant:normal;font-weight:normal;font-stretch:normal;font-size:52.91666794px;font-family:FreeMono;-inkscape-font-specification:'FreeMono, Normal';font-variant-ligatures:normal;font-variant-caps:normal;font-variant-numeric:normal;font-feature-settings:normal;text-align:start;writing-mode:lr-tb;text-anchor:start;fill:#483e37;stroke-width:0.26458332">Plot</tspan></text>
    <path
       style="fill:#917c6f;fill-opacity:1;stroke:none;stroke-width:18.85521317;stroke-linecap:round;stroke-linejoin:round;stroke-miterlimit:4;stroke-dasharray:none;stroke-dashoffset:0;stroke-opacity:1"
       d="m -388.48079,-175.20626 c -1.34884,-0.0805 -14.98435,6.67663 -18.72281,9.31841 -1.97676,1.39689 -4.65089,3.80493 -5.94137,5.35101 -2.38263,2.85458 -8.95276,12.74015 -8.95276,13.47039 0,0.21963 0.41581,0.85878 0.92395,1.42028 0.87459,0.96639 1.09245,0.9432 4.08661,-0.42758 5.35779,-2.45287 14.77317,-2.73863 18.90393,-0.5743 l 1.55671,0.81503 -2.90477,1.48563 c -3.35936,1.71822 -8.128,6.28297 -6.56381,6.28297 0.63094,0 0.86033,0.3142 0.64307,0.88037 -0.21694,0.56545 0.0111,0.88037 0.63966,0.88037 0.53777,0 0.81508,0.26412 0.61557,0.58692 -0.53332,0.86292 1.72381,0.71553 5.39571,-0.35192 7.36534,-2.14117 15.09901,1.63586 18.11068,8.84384 1.08213,2.58988 1.09706,8.56388 0.0275,11.12386 -1.19265,2.85445 -4.97279,6.81206 -7.68723,8.0483 -5.982,2.72442 -14.46514,0.56423 -18.12327,-4.61392 -2.83079,-4.00705 -3.40517,-6.27022 -3.73584,-14.72217 l -0.30608,-7.81215 -1.68279,1.61287 -1.6828,1.61172 v -1.68623 -1.68738 l -1.76074,1.68738 -1.76075,1.68623 -0.0177,-1.72291 -0.0178,-1.72407 -1.74355,1.91665 -1.74355,1.91664 v 13.7134 13.7134 l 2.59643,0.65455 c 2.77832,0.69959 5.03347,2.90976 5.03347,4.933751 0,0.650168 -0.96079,2.115763 -2.13558,3.25669 -1.17477,1.140927 -2.81309,3.544931 -3.64072,5.341839 l -1.50511,3.26701 0.16171,16.118371 c 0.089,8.864978 0.29891,16.340036 0.46656,16.611289 0.64873,1.049685 1.72951,-0.06107 3.32546,-3.414881 h 10e-4 c 3.08234,-6.477395 4.51924,-8.608343 5.34184,-7.925637 0.5726,0.475213 1.7567,-0.698382 4.99796,-4.954387 2.33596,-3.067317 4.45577,-5.576835 4.71136,-5.576835 0.25561,0 0.60781,0.547744 0.78294,1.21739 0.29381,1.123542 0.69587,0.956554 5.20428,-2.167686 2.68707,-1.862077 5.51539,-3.863584 6.28526,-4.446567 1.80562,-1.367358 2.41529,-1.337853 2.41529,0.11464 0,0.645606 0.19809,1.170032 0.44017,1.165806 0.2421,-0.0042 3.73231,-1.050202 7.75599,-2.324734 7.09313,-2.246796 8.19046,-2.307448 8.22828,-0.455088 0.0226,1.102824 1.66975,0.102728 7.16563,-4.34798 5.24787,-4.249892 6.04154,-4.706142 7.06476,-4.067138 0.63396,0.395915 1.21725,0.634961 1.29533,0.531892 0.0781,-0.103061 1.82341,-3.15949 3.87914,-6.793081 3.71969,-6.574664 3.74637,-6.605244 5.61697,-6.254314 l 1.87995,0.35192 0.39778,-4.0167 c 1.23663,-12.49605 1.04025,-11.63131 2.67779,-11.82197 l 1.50396,-0.17538 -1.25751,-5.98721 c -2.18984,-10.43084 -2.12522,-9.80136 -1.00072,-9.81134 0.55685,-0.005 1.39489,-0.25079 1.86276,-0.54679 0.68839,-0.4355 -0.004,-1.82408 -3.63726,-7.27683 -4.47572,-6.72021 -4.48419,-6.741 -3.19822,-7.60582 0.7092,-0.47693 1.15753,-0.97313 0.99613,-1.10275 -0.16149,-0.12962 -2.93458,-2.31548 -6.16259,-4.85695 -3.22804,-2.54147 -5.99166,-4.72049 -6.14083,-4.84319 -0.14929,-0.12272 0.0541,-0.74363 0.45166,-1.38017 0.62694,-1.0039 0.54662,-1.22413 -0.60869,-1.65414 -0.73258,-0.27266 -4.43535,-1.65043 -8.22829,-3.06181 -6.01947,-2.23989 -6.89624,-2.73449 -6.89624,-3.89519 0,-1.31355 -0.0929,-1.32973 -7.6299,-1.32973 -7.0074,0 -7.62989,-0.0882 -7.62989,-1.07639 0,-0.59181 -0.14951,-1.22602 -0.33243,-1.40883 -0.0177,-0.0172 -0.0481,-0.0261 -0.0916,-0.0287 z m -15.61973,18.36057 c 1.73921,0 2.811,1.92742 1.9579,3.52149 -0.69657,1.30154 -2.90024,1.56006 -3.99147,0.46884 -1.57869,-1.57869 -0.34951,-3.99033 2.03357,-3.99033 z"
       id="rect872"
       inkscape:connector-curvature="0"
       sodipodi:nodetypes="sccscscccscscscccccccccccccccccccscccccccccscccscsccccccccccccccccccccsssscssccs" />
    <text
       xml:space="preserve"
       style="font-style:normal;font-weight:normal;font-size:10.58333302px;line-height:1.25;font-family:sans-serif;letter-spacing:0px;word-spacing:0px;fill:#483e37;fill-opacity:1;stroke:none;stroke-width:0.26458332"
       x="-380.52646"
       y="-63.190807"
       id="text890"><tspan
         sodipodi:role="line"
         id="tspan888"
         x="-380.52646"
         y="-63.190807"
         style="font-style:normal;font-variant:normal;font-weight:normal;font-stretch:normal;font-size:105.83333588px;font-family:Dyuthi;-inkscape-font-specification:'Dyuthi, Normal';font-variant-ligatures:normal;font-variant-caps:normal;font-variant-numeric:normal;font-feature-settings:normal;text-align:start;writing-mode:lr-tb;text-anchor:start;fill:#483e37;stroke-width:0.26458332">angy</tspan></text>
  </g>
</svg>
