<?xml version="1.0" encoding="UTF-8" standalone="no"?>
<svg
   xmlns:dc="http://purl.org/dc/elements/1.1/"
   xmlns:cc="http://creativecommons.org/ns#"
   xmlns:rdf="http://www.w3.org/1999/02/22-rdf-syntax-ns#"
   xmlns:svg="http://www.w3.org/2000/svg"
   xmlns="http://www.w3.org/2000/svg"
   xmlns:sodipodi="http://sodipodi.sourceforge.net/DTD/sodipodi-0.dtd"
   xmlns:inkscape="http://www.inkscape.org/namespaces/inkscape"
   width="1736.6869"
   height="570.10541"
   viewBox="-544.23456 -474.08997 1736.6869 570.10541"
   version="1.1"
   id="svg1444"
   sodipodi:docname="neo4j_bubblechain.svg"
   inkscape:version="0.92.5 (2060ec1f9f, 2020-04-08)">
  <metadata
     id="metadata1450">
    <rdf:RDF>
      <cc:Work
         rdf:about="">
        <dc:format>image/svg+xml</dc:format>
        <dc:type
           rdf:resource="http://purl.org/dc/dcmitype/StillImage" />
      </cc:Work>
    </rdf:RDF>
  </metadata>
  <defs
     id="defs1448" />
  <sodipodi:namedview
     pagecolor="#ffffff"
     bordercolor="#666666"
     borderopacity="1"
     objecttolerance="10"
     gridtolerance="10"
     guidetolerance="10"
     inkscape:pageopacity="0"
     inkscape:pageshadow="2"
     inkscape:window-width="4240"
     inkscape:window-height="2338"
     id="namedview1446"
     showgrid="false"
     inkscape:zoom="1.4308883"
     inkscape:cx="963.34258"
     inkscape:cy="185.73381"
     inkscape:window-x="3504"
     inkscape:window-y="54"
     inkscape:window-maximized="1"
     inkscape:current-layer="svg1444" />
  <title
     id="title2">Neo4j Graph Visualization</title>
  <desc
     id="desc4">Created using Neo4j (http://www.neo4j.com/)</desc>
  <path
     class="b-outline"
     d="m -107.22312,-293.70674 15.657261,-0.11181 -0.03571,-4.99987 -15.657251,0.11181 z m 38.890001,-0.27772 15.657258,-0.11182 0.02142,2.99993 10.960444,-5.57842 -11.038996,-5.4213 0.02142,2.99992 -15.657258,0.11181 z"
     id="path6"
     inkscape:connector-curvature="0"
     style="fill:#da7194;stroke:none" />
  <text
     pointer-events="none"
     font-size="8px"
     x="-77.848663"
     y="-293.96494"
     id="text8"
     style="font-size:8px;font-family:'Helvetica Neue', Helvetica, Arial, sans-serif;text-anchor:middle;fill:#000000"
     transform="rotate(-0.40916063)">END</text>
  <path
     class="b-outline"
     d="m 125.32476,-294.55476 18.82259,-0.42569 -0.11305,-4.99872 -18.82259,0.42569 z m 42.04999,-0.951 18.82259,-0.42569 0.0678,2.99923 10.87283,-5.7473 -11.12154,-5.24988 0.0678,2.99923 -18.82259,0.42569 z"
     id="path12"
     inkscape:connector-curvature="0"
     style="fill:#da7194;stroke:none" />
  <text
     pointer-events="none"
     font-size="8px"
     x="162.39673"
     y="-291.14584"
     id="text14"
     style="font-size:8px;font-family:'Helvetica Neue', Helvetica, Arial, sans-serif;text-anchor:middle;fill:#000000"
     transform="rotate(-1.2955785)">END</text>
  <path
     class="b-outline"
     d="m 363.1941,-297.53208 18.60978,-0.20726 -0.0557,-4.99969 -18.60978,0.20726 z m 41.84167,-0.466 18.60979,-0.20725 0.0334,2.99981 10.93806,-5.62216 -11.06056,-5.37716 0.0334,2.99982 -18.60978,0.20725 z"
     id="path18"
     inkscape:connector-curvature="0"
     style="fill:#da7194;stroke:none" />
  <text
     pointer-events="none"
     font-size="8px"
     x="396.71262"
     y="-292.96896"
     id="text20"
     style="font-size:8px;font-family:'Helvetica Neue', Helvetica, Arial, sans-serif;text-anchor:middle;fill:#000000"
     transform="rotate(-0.63808159)">END</text>
  <path
     class="b-outline"
     d="m 484.69172,-299.54658 16.71343,-0.62802 -0.18775,-4.99648 -16.71343,0.62802 z m 39.93038,-1.50042 16.71342,-0.62802 0.11265,2.99788 10.78572,-5.90916 -11.19876,-5.08308 0.11265,2.99789 -16.71343,0.62802 z"
     id="path24"
     inkscape:connector-curvature="0"
     style="fill:#da7194;stroke:none" />
  <text
     pointer-events="none"
     font-size="8px"
     x="523.93958"
     y="-280.6355"
     id="text26"
     style="font-size:8px;font-family:'Helvetica Neue', Helvetica, Arial, sans-serif;text-anchor:middle;fill:#000000"
     transform="rotate(-2.1519215)">END</text>
  <path
     class="b-outline"
     d="m 247.14233,-296.85441 15.90184,-0.0697 -0.0219,-4.99995 -15.90184,0.0697 z m 39.13495,-0.17158 15.90184,-0.0697 0.0131,2.99997 10.97578,-5.54817 -11.02401,-5.45172 0.0132,2.99997 -15.90184,0.0697 z"
     id="path30"
     inkscape:connector-curvature="0"
     style="fill:#da7194;stroke:none" />
  <text
     pointer-events="none"
     font-size="8px"
     x="275.96008"
     y="-295.26801"
     id="text32"
     style="font-size:8px;font-family:'Helvetica Neue', Helvetica, Arial, sans-serif;text-anchor:middle;fill:#000000"
     transform="rotate(-0.25120176)">END</text>
  <path
     class="b-outline"
     d="m 8.2974599,-294.27542 16.3681641,0.051 0.01558,-4.99997 -16.3681641,-0.051 z m 39.6013851,0.12339 16.368164,0.051 -0.0093,2.99998 11.017083,-5.4657 -10.982811,-5.53425 -0.0093,2.99999 -16.368164,-0.051 z"
     id="path36"
     inkscape:connector-curvature="0"
     style="fill:#da7194;stroke:none" />
  <text
     pointer-events="none"
     font-size="8px"
     x="35.365482"
     y="-293.79984"
     id="text38"
     style="font-size:8px;font-family:'Helvetica Neue', Helvetica, Arial, sans-serif;text-anchor:middle;fill:#000000"
     transform="rotate(0.17851136)">END</text>
  <path
     class="b-outline"
     d="m -495.57864,-174.95505 30.42973,-31.47387 -0.71893,-0.69508 -30.42973,31.47387 z m 61.24499,-63.34648 30.42974,-31.47387 2.15679,2.08524 2.34931,-7.4653 -7.38183,2.59973 2.1568,2.08525 -30.42974,31.47387 z"
     id="path42"
     inkscape:connector-curvature="0"
     style="fill:#57c7e3;stroke:none" />
  <text
     pointer-events="none"
     font-size="8px"
     x="-152.74133"
     y="-475.39496"
     id="text44"
     style="font-size:8px;font-family:'Helvetica Neue', Helvetica, Arial, sans-serif;text-anchor:middle;fill:#000000"
     transform="rotate(-45.96632)">LINKS_TO</text>
  <path
     class="b-outline"
     d="m -493.23256,-288.68191 17.4721,-0.62002 -0.0355,-0.99937 -17.47209,0.62002 z m 61.77754,-2.19227 17.4721,-0.62002 0.10639,2.99811 6.87147,-3.74605 -7.11972,-3.24955 0.10639,2.99812 -17.47209,0.62002 z"
     id="path48"
     inkscape:connector-curvature="0"
     style="fill:#57c7e3;stroke:none" />
  <text
     pointer-events="none"
     font-size="8px"
     x="-443.03464"
     y="-303.4924"
     id="text50"
     style="font-size:8px;font-family:'Helvetica Neue', Helvetica, Arial, sans-serif;text-anchor:middle;fill:#000000"
     transform="rotate(-2.032375)">LINKS_TO</text>
  <path
     class="b-outline"
     d="m -513.75389,-182.33045 -0.55788,-14.85189 -0.99929,0.0375 0.55788,14.85188 z m -2.22198,-59.15397 -0.55788,-14.85189 2.99789,-0.11261 -3.76029,-6.86369 -3.23478,7.12645 2.99789,-0.11261 0.55787,14.85188 z"
     id="path54"
     inkscape:connector-curvature="0"
     style="fill:#57c7e3;stroke:none" />
  <text
     pointer-events="none"
     font-size="8px"
     x="-238.51537"
     y="510.04782"
     transform="rotate(87.848827)"
     id="text56"
     style="font-size:8px;font-family:'Helvetica Neue', Helvetica, Arial, sans-serif;text-anchor:middle;fill:#000000">LINKS_TO</text>
  <path
     class="b-outline"
     d="m 586.52126,-282.31582 4.06104,9.57068 0.92056,-0.39061 -4.06104,-9.57068 z m 21.37812,50.38199 4.06103,9.57068 -2.76167,1.17184 5.95623,5.07675 0.48767,-7.81102 -2.76167,1.17183 -4.06104,-9.57069 z"
     id="path60"
     inkscape:connector-curvature="0"
     style="fill:#57c7e3;stroke:none" />
  <text
     pointer-events="none"
     font-size="8px"
     x="1.7773005"
     y="-647.70123"
     id="text62"
     style="font-size:8px;font-family:'Helvetica Neue', Helvetica, Arial, sans-serif;text-anchor:middle;fill:#000000"
     transform="rotate(67.007494)">LINKS_TO</text>
  <path
     class="b-outline"
     d="m 649.97588,-191.23968 23.63619,-0.60357 -0.12763,-4.99837 -23.6362,0.60357 z m 46.86196,-1.19666 23.63619,-0.60357 0.0766,2.99902 10.85601,-5.77901 -11.13681,-5.2174 0.0766,2.99902 -23.63619,0.60357 z"
     id="path66"
     inkscape:connector-curvature="0"
     style="fill:#da7194;stroke:none" />
  <text
     pointer-events="none"
     font-size="8px"
     x="689.90656"
     y="-174.08501"
     id="text68"
     style="font-size:8px;font-family:'Helvetica Neue', Helvetica, Arial, sans-serif;text-anchor:middle;fill:#000000"
     transform="rotate(-1.4627836)">END</text>
  <path
     class="b-outline"
     d="m 74.524908,60.042314 240.613802,-110.42485 -0.4171,-0.90886 -240.613805,110.42485 z m 280.906572,-128.91641 240.6138,-110.424854 1.25131,2.72658 4.90216,-6.10073 -7.82188,-0.26129 1.25131,2.72658 -240.6138,110.424854 z"
     id="path72"
     inkscape:connector-curvature="0"
     style="fill:#57c7e3;stroke:none" />
  <text
     pointer-events="none"
     font-size="8px"
     x="329.59811"
     y="88.154564"
     id="text74"
     style="font-size:8px;font-family:'Helvetica Neue', Helvetica, Arial, sans-serif;text-anchor:middle;fill:#000000"
     transform="rotate(-24.651802)">LINKS_TO</text>
  <path
     class="b-outline"
     d="m -490.30947,-147.53184 235.4519,94.756254 0.37335,-0.92769 -235.45191,-94.756254 z m 276.57961,111.307864 235.451905,94.75625 -1.120033,2.78307 7.800555,-0.63351 -5.187143,-5.86034 -1.120034,2.78308 -235.4519,-94.75624 z"
     id="path78"
     inkscape:connector-curvature="0"
     style="fill:#57c7e3;stroke:none" />
  <text
     pointer-events="none"
     font-size="8px"
     x="-233.96632"
     y="48.690144"
     id="text80"
     style="font-size:8px;font-family:'Helvetica Neue', Helvetica, Arial, sans-serif;text-anchor:middle;fill:#000000"
     transform="rotate(21.922033)">LINKS_TO</text>
  <path
     class="b-outline"
     d="m -356.98984,-290.96043 21.30522,-0.28251 -0.0663,-4.99956 -21.30522,0.28251 z m 44.53651,-0.59056 21.30522,-0.28251 0.0398,2.99974 10.92611,-5.64537 -11.07196,-5.35366 0.0398,2.99973 -21.30522,0.28251 z"
     id="path84"
     inkscape:connector-curvature="0"
     style="fill:#da7194;stroke:none" />
  <text
     pointer-events="none"
     font-size="8px"
     x="-320.17691"
     y="-295.16815"
     id="text86"
     style="font-size:8px;font-family:'Helvetica Neue', Helvetica, Arial, sans-serif;text-anchor:middle;fill:#000000"
     transform="rotate(-0.75969974)">END</text>
  <path
     class="b-outline"
     d="m -230.16089,-292.55829 19.35744,-0.1917 -0.0495,-4.99976 -19.35744,0.19171 z m 42.58963,-0.42178 19.35744,-0.1917 0.0297,2.99986 10.945,-5.60867 -11.05393,-5.39079 0.0297,2.99985 -19.35744,0.1917 z"
     id="path90"
     inkscape:connector-curvature="0"
     style="fill:#da7194;stroke:none" />
  <text
     pointer-events="none"
     font-size="8px"
     x="-196.2774"
     y="-294.32318"
     id="text92"
     style="font-size:8px;font-family:'Helvetica Neue', Helvetica, Arial, sans-serif;text-anchor:middle;fill:#000000"
     transform="rotate(-0.56739682)">END</text>
  <path
     class="b-outline"
     d="m 781.45257,-194.57583 29.87989,-0.73765 -0.12339,-4.99847 -29.8799,0.73764 z m 53.10615,-1.31103 29.8799,-0.73764 0.074,2.99909 10.86092,-5.7698 -11.13239,-5.22685 0.074,2.99908 -29.8799,0.73764 z"
     id="path96"
     inkscape:connector-curvature="0"
     style="fill:#da7194;stroke:none" />
  <text
     pointer-events="none"
     font-size="8px"
     x="827.52222"
     y="-174.73083"
     id="text98"
     style="font-size:8px;font-family:'Helvetica Neue', Helvetica, Arial, sans-serif;text-anchor:middle;fill:#000000"
     transform="rotate(-1.4141655)">END</text>
  <path
     class="b-outline"
     d="m 925.40597,-197.95135 24.68421,-0.4333 -0.0878,-4.99923 -24.68421,0.4333 z m 47.91397,-0.84106 24.68424,-0.4333 0.053,2.99954 10.90182,-5.69221 -11.09482,-5.3061 0.053,2.99954 -24.6842,0.4333 z"
     id="path102"
     inkscape:connector-curvature="0"
     style="fill:#da7194;stroke:none" />
  <text
     pointer-events="none"
     font-size="8px"
     x="965.04236"
     y="-181.17918"
     id="text104"
     style="font-size:8px;font-family:'Helvetica Neue', Helvetica, Arial, sans-serif;text-anchor:middle;fill:#000000"
     transform="rotate(-1.005642)">END</text>
  <path
     class="b-outline"
     d="m 901.04888,-225.00786 0.11128,-15.20864 -0.99997,-0.007 -0.11129,15.20864 z m 0.35299,-48.24109 0.11129,-15.20864 2.99992,0.022 -3.44869,-7.02542 -3.55112,6.9742 2.99992,0.022 -0.11129,15.20864 z"
     id="path108"
     inkscape:connector-curvature="0"
     style="fill:#a5abb6;stroke:none" />
  <text
     pointer-events="none"
     font-size="8px"
     x="263.32068"
     y="901.87836"
     id="text110"
     style="font-size:8px;font-family:'Helvetica Neue', Helvetica, Arial, sans-serif;text-anchor:middle;fill:#000000"
     transform="rotate(-89.580753)">INSIDE</text>
  <text
     pointer-events="none"
     font-size="8px"
     x="917.53094"
     y="10.421849"
     id="text284"
     style="font-size:8px;font-family:'Helvetica Neue', Helvetica, Arial, sans-serif;text-anchor:middle;fill:#000000"
     transform="rotate(-20.018652)" />
  <text
     pointer-events="none"
     font-size="8px"
     x="975.48242"
     y="177.09744"
     transform="rotate(-30.06095)"
     id="text320"
     style="font-size:8px;font-family:'Helvetica Neue', Helvetica, Arial, sans-serif;text-anchor:middle;fill:#000000" />
  <text
     pointer-events="none"
     font-size="8px"
     x="646.28595"
     y="-824.14191"
     transform="rotate(40.27845)"
     id="text566"
     style="font-size:8px;font-family:'Helvetica Neue', Helvetica, Arial, sans-serif;text-anchor:middle;fill:#000000">INSIDE</text>
  <path
     class="b-outline"
     d="m 648.47034,-205.1022 97.28035,-44.83671 -0.41858,-0.90818 -97.28035,44.83671 z m 121.67097,-55.94333 97.28035,-44.83672 1.25575,2.72454 4.89221,-6.1087 -7.82229,-0.24856 1.25575,2.72454 -97.28035,44.83672 z"
     id="path678"
     inkscape:connector-curvature="0"
     style="fill:#000000;fill-opacity:1;stroke:#da7194;stroke-width:4;stroke-miterlimit:4;stroke-dasharray:none;stroke-opacity:1"
     sodipodi:nodetypes="ccccccccccccc" />
  <text
     pointer-events="none"
     font-size="8px"
     x="794.62726"
     y="87.781837"
     id="text680"
     style="font-size:8px;font-family:'Helvetica Neue', Helvetica, Arial, sans-serif;text-anchor:middle;fill:#000000"
     transform="rotate(-24.74507)">END</text>
  <path
     class="b-outline"
     d="m 1015.6118,-219.35086 -32.72561,-29.1242 -0.66481,0.74701 32.72562,29.12421 z m -57.402,-51.085 -32.72559,-29.12421 1.99442,-2.24104 -7.55593,-2.0391 2.90228,7.2682 1.99442,-2.24104 32.72559,29.1242 z"
     id="path684"
     inkscape:connector-curvature="0"
     style="fill:#a5abb6;stroke:none" />
  <text
     pointer-events="none"
     font-size="8px"
     x="552.52582"
     y="-835.54456"
     transform="rotate(41.66755)"
     id="text686"
     style="font-size:8px;font-family:'Helvetica Neue', Helvetica, Arial, sans-serif;text-anchor:middle;fill:#000000">INSIDE</text>
  <path
     class="b-outline"
     d="m 775.71503,-212.33642 38.22728,-32.72563 -0.65033,-0.75965 -38.22727,32.72563 z m 63.32121,-54.20807 38.22728,-32.72564 1.95098,2.27897 3.04145,-7.21108 -7.59373,1.89349 1.95098,2.27897 -38.22728,32.72564 z"
     id="path690"
     inkscape:connector-curvature="0"
     style="fill:#a5abb6;stroke:none" />
  <text
     pointer-events="none"
     font-size="8px"
     x="794.20233"
     y="345.66537"
     id="text692"
     style="font-size:8px;font-family:'Helvetica Neue', Helvetica, Arial, sans-serif;text-anchor:middle;fill:#000000"
     transform="rotate(-40.566199)">INSIDE</text>
  <path
     class="b-outline"
     d="m 1058.9926,-200.27042 24.1379,-0.39875 -0.083,-4.99932 -24.1378,0.39875 z m 47.3681,-0.7825 24.1379,-0.39874 0.05,2.99959 10.9077,-5.68094 -11.0894,-5.31756 0.05,2.99959 -24.1379,0.39874 z"
     id="path696"
     inkscape:connector-curvature="0"
     style="fill:#da7194;stroke:none" />
  <text
     pointer-events="none"
     font-size="8px"
     x="1097.9139"
     y="-182.2515"
     id="text698"
     style="font-size:8px;font-family:'Helvetica Neue', Helvetica, Arial, sans-serif;text-anchor:middle;fill:#000000"
     transform="rotate(-0.94640923)">END</text>
  <path
     class="b-outline"
     d="m 924.15483,-309.93541 91.35377,39.92842 0.4004,-0.9163 -91.35367,-39.92842 z m 116.43347,50.62537 91.3537,39.92841 -1.2015,2.7489 7.8158,-0.40361 -5.0124,-6.01048 -1.2015,2.74889 -91.3536,-39.92841 z"
     id="path702"
     inkscape:connector-curvature="0"
     style="fill:#da7194;fill-opacity:1;stroke:#da7194;stroke-width:4;stroke-miterlimit:4;stroke-dasharray:none;stroke-opacity:1"
     sodipodi:nodetypes="ccccccccccccc" />
  <text
     pointer-events="none"
     font-size="8px"
     x="835.95203"
     y="-651.6944"
     transform="rotate(23.60893)"
     id="text704"
     style="font-size:8px;font-family:'Helvetica Neue', Helvetica, Arial, sans-serif;text-anchor:middle;fill:#000000">END</text>
  <path
     class="b-outline"
     d="m -232.75032,-305.85421 108.15272,-55.95417 -0.45951,-0.88818 -108.15272,55.95418 z m 137.492055,-71.13325 108.152707,-55.95417 1.378523,2.66452 4.608939,-6.32516 -7.825494,0.10795 1.378524,2.66452 -108.152707,55.95417 z"
     id="path708"
     inkscape:connector-curvature="0"
     style="fill:#a5abb6;stroke:none" />
  <text
     pointer-events="none"
     font-size="8px"
     x="72.106148"
     y="-376.10226"
     id="text710"
     style="font-size:8px;font-family:'Helvetica Neue', Helvetica, Arial, sans-serif;text-anchor:middle;fill:#000000"
     transform="rotate(-27.355356)">INSIDE</text>
  <path
     class="b-outline"
     d="m 91.648227,-319.95874 -13.222245,-33.86656 -0.931521,0.36368 13.222245,33.86656 z m -25.236017,-64.63782 -13.222245,-33.86656 2.794564,-1.09106 -5.80613,-5.24776 -0.71452,7.79356 2.794564,-1.09106 13.222246,33.86656 z"
     id="path714"
     inkscape:connector-curvature="0"
     style="fill:#a5abb6;stroke:none" />
  <text
     pointer-events="none"
     font-size="8px"
     x="-317.59009"
     y="-198.23691"
     transform="rotate(68.67324)"
     id="text716"
     style="font-size:8px;font-family:'Helvetica Neue', Helvetica, Arial, sans-serif;text-anchor:middle;fill:#000000">INSIDE</text>
  <path
     class="b-outline"
     d="m -113.11774,-312.13952 52.823632,-46.3429 -0.659489,-0.75172 -52.823633,46.34291 z m 77.655251,-68.12803 52.82363,-46.34291 1.978467,2.25514 2.953786,-7.24742 -7.57021,1.98542 1.978468,2.25515 -52.82363,46.34291 z"
     id="path720"
     inkscape:connector-curvature="0"
     style="fill:#a5abb6;stroke:none" />
  <text
     pointer-events="none"
     font-size="8px"
     x="207.60802"
     y="-306.73959"
     id="text722"
     style="font-size:8px;font-family:'Helvetica Neue', Helvetica, Arial, sans-serif;text-anchor:middle;fill:#000000"
     transform="rotate(-41.260928)">INSIDE</text>
  <path
     class="b-outline"
     d="m 316.02434,-311.36887 -108.26557,-54.05833 -0.44672,0.89467 108.26557,54.05833 z m -137.81961,-68.81503 -108.265571,-54.05833 1.340164,-2.68402 -7.826237,0.004 4.699187,6.25841 1.340164,-2.68402 108.265573,54.05833 z"
     id="path726"
     inkscape:connector-curvature="0"
     style="fill:#a5abb6;stroke:none" />
  <text
     pointer-events="none"
     font-size="8px"
     x="6.1154246"
     y="-416.2482"
     transform="rotate(26.53352)"
     id="text728"
     style="font-size:8px;font-family:'Helvetica Neue', Helvetica, Arial, sans-serif;text-anchor:middle;fill:#000000">INSIDE</text>
  <path
     class="b-outline"
     d="m 436.19347,-309.86163 -166.79106,-58.57559 -0.33135,0.9435 166.79106,58.5756 z m -197.95826,-69.52125 -166.791056,-58.5756 0.994055,-2.83052 -7.764282,0.98281 5.44482,5.62174 0.994055,-2.83052 166.791058,58.5756 z"
     id="path732"
     inkscape:connector-curvature="0"
     style="fill:#a5abb6;stroke:none" />
  <text
     pointer-events="none"
     font-size="8px"
     x="115.58415"
     y="-433.39017"
     transform="rotate(19.35084)"
     id="text734"
     style="font-size:8px;font-family:'Helvetica Neue', Helvetica, Arial, sans-serif;text-anchor:middle;fill:#000000">INSIDE</text>
  <path
     class="b-outline"
     d="m 203.13775,-315.50772 -55.74931,-45.83392 -0.63507,0.77246 55.74931,45.83391 z m -81.26609,-66.81236 -55.749305,-45.83392 1.905207,-2.31737 -7.629929,-1.74188 3.184446,7.14907 1.905207,-2.31736 55.749304,45.83391 z"
     id="path738"
     inkscape:connector-curvature="0"
     style="fill:#a5abb6;stroke:none" />
  <text
     pointer-events="none"
     font-size="8px"
     x="-132.14252"
     y="-369.22214"
     transform="rotate(39.4251)"
     id="text740"
     style="font-size:8px;font-family:'Helvetica Neue', Helvetica, Arial, sans-serif;text-anchor:middle;fill:#000000">INSIDE</text>
  <path
     class="b-outline"
     d="m -7.3051722,-320.02846 12.8241948,-33.56627 -0.9341443,-0.35689 -12.8241948,33.56627 z m 24.6136402,-64.42417 12.824195,-33.56627 2.802433,1.07069 -0.771237,-7.78815 -5.767773,5.28988 2.802433,1.07069 -12.824195,33.56627 z"
     id="path744"
     inkscape:connector-curvature="0"
     style="fill:#a5abb6;stroke:none" />
  <text
     pointer-events="none"
     font-size="8px"
     x="348.79489"
     y="-118.54078"
     id="text746"
     style="font-size:8px;font-family:'Helvetica Neue', Helvetica, Arial, sans-serif;text-anchor:middle;fill:#000000"
     transform="rotate(-69.090344)">INSIDE</text>
  <g
     id="g3985"
     transform="rotate(-180,310.9725,-215.64105)">
    <path
       style="fill:#da7194;stroke:none"
       inkscape:connector-curvature="0"
       id="path750"
       d="M 556.69837,8.0396229 329.33555,-52.41951 l -1.28492,4.832078 227.36281,60.459133 z M 306.88249,-58.390111 79.519682,-118.84924 l 0.770952,-2.89925 -12.043984,2.48846 9.217158,8.14211 0.770953,-2.89925 227.362809,60.459137 z"
       class="b-outline" />
    <text
       style="font-size:8px;font-family:'Helvetica Neue', Helvetica, Arial, sans-serif;text-anchor:middle;fill:#000000"
       id="text752"
       transform="rotate(-165.10881)"
       y="135.62506"
       x="-293.46738"
       font-size="8px"
       pointer-events="none">END</text>
  </g>
  <g
     id="g3981"
     transform="rotate(180,-168.53738,-209.88968)">
    <path
       style="fill:#da7194;stroke:none"
       inkscape:connector-curvature="0"
       id="path756"
       d="m 19.751399,-119.4345 -172.005799,62.996417 1.71954,4.69502 172.00579,-62.996417 z m -193.821989,70.986511 -172.0058,62.996419 -1.03172,-2.817012 -8.43756,8.947492 12.22053,1.381551 -1.03172,-2.817011 172.0058,-62.996419 z"
       class="b-outline" />
    <text
       style="font-size:8px;font-family:'Helvetica Neue', Helvetica, Arial, sans-serif;text-anchor:middle;fill:#000000"
       id="text758"
       transform="rotate(159.88495)"
       y="105.68884"
       x="134.89473"
       font-size="8px"
       pointer-events="none">END</text>
  </g>
  <g
     id="g1332"
     transform="translate(459.61549,-301.10609)"
     aria-label="graph-node902037"
     class="node">
    <circle
       style="fill:#f16667;stroke:#eb2728;stroke-width:2px"
       id="circle1328"
       r="25"
       cy="0"
       cx="0"
       class="b-outline" />
    <text
       style="font-size:10px;font-family:'Helvetica Neue', Helvetica, Arial, sans-serif;text-anchor:middle;fill:#ffffff"
       id="text1330"
       font-size="10px"
       y="5"
       x="0"
       pointer-events="none"
       class="caption">34</text>
  </g>
  <g
     id="g1338"
     transform="translate(222.13161,-299.24478)"
     aria-label="graph-node902038"
     class="node">
    <circle
       style="fill:#f16667;stroke:#eb2728;stroke-width:2px"
       id="circle1334"
       r="25"
       cy="0"
       cx="0"
       class="b-outline" />
    <text
       style="font-size:10px;font-family:'Helvetica Neue', Helvetica, Arial, sans-serif;text-anchor:middle;fill:#ffffff"
       id="text1336"
       font-size="10px"
       y="5"
       x="0"
       pointer-events="none"
       class="caption">35</text>
  </g>
  <g
     id="g1344"
     transform="translate(-16.69463,-296.85329)"
     aria-label="graph-node902040"
     class="node">
    <circle
       style="fill:#f16667;stroke:#eb2728;stroke-width:2px"
       id="circle1340"
       r="25"
       cy="0"
       cx="0"
       class="b-outline" />
    <text
       style="font-size:10px;font-family:'Helvetica Neue', Helvetica, Arial, sans-serif;text-anchor:middle;fill:#ffffff"
       id="text1342"
       font-size="10px"
       y="5"
       x="0"
       pointer-events="none"
       class="caption">36</text>
  </g>
  <g
     id="g1350"
     transform="translate(756.3985,-196.45809)"
     aria-label="graph-node1531445"
     class="node">
    <circle
       style="fill:#f16667;stroke:#eb2728;stroke-width:2px"
       id="circle1346"
       r="25"
       cy="0"
       cx="0"
       class="b-outline" />
    <text
       style="font-size:10px;font-family:'Helvetica Neue', Helvetica, Arial, sans-serif;text-anchor:middle;fill:#ffffff"
       id="text1348"
       font-size="10px"
       y="5"
       x="0"
       pointer-events="none"
       class="caption">623868</text>
  </g>
  <g
     id="g1356"
     transform="translate(900.36596,-200.01219)"
     aria-label="graph-node571922"
     class="node">
    <circle
       style="fill:#f79767;stroke:#f36924;stroke-width:2px"
       id="circle1352"
       r="25"
       cy="0"
       cx="0"
       class="b-outline" />
    <text
       style="font-size:10px;font-family:'Helvetica Neue', Helvetica, Arial, sans-serif;text-anchor:middle;fill:#ffffff"
       id="text1354"
       font-size="10px"
       y="5"
       x="0"
       pointer-events="none"
       class="caption">GAGCT…</text>
  </g>
  <g
     id="g1362"
     transform="translate(1033.9548,-202.35715)"
     aria-label="graph-node1533670"
     class="node">
    <circle
       style="fill:#f16667;stroke:#eb2728;stroke-width:2px"
       id="circle1358"
       r="25"
       cy="0"
       cx="0"
       class="b-outline" />
    <text
       style="font-size:10px;font-family:'Helvetica Neue', Helvetica, Arial, sans-serif;text-anchor:middle;fill:#ffffff"
       id="text1360"
       font-size="10px"
       y="5"
       x="0"
       pointer-events="none"
       class="caption">623869</text>
  </g>
  <g
     id="g1368"
     transform="translate(1166.4524,-204.54594)"
     aria-label="graph-node571925"
     class="node">
    <circle
       style="fill:#f79767;stroke:#f36924;stroke-width:2px"
       id="circle1364"
       r="25"
       cy="0"
       cx="0"
       class="b-outline" />
    <text
       style="font-size:10px;font-family:'Helvetica Neue', Helvetica, Arial, sans-serif;text-anchor:middle;fill:#ffffff"
       id="text1366"
       font-size="10px"
       y="5"
       x="0"
       pointer-events="none"
       class="caption">C</text>
  </g>
  <g
     id="g1374"
     transform="translate(-255.18442,-294.8106)"
     aria-label="graph-node902039"
     class="node">
    <circle
       style="fill:#f16667;stroke:#eb2728;stroke-width:2px"
       id="circle1370"
       r="25"
       cy="0"
       cx="0"
       class="b-outline" />
    <text
       style="font-size:10px;font-family:'Helvetica Neue', Helvetica, Arial, sans-serif;text-anchor:middle;fill:#ffffff"
       id="text1372"
       font-size="10px"
       y="5"
       x="0"
       pointer-events="none"
       class="caption">37</text>
  </g>
  <g
     id="g1380"
     transform="translate(51.594872,70.015444)"
     aria-label="graph-node1713739"
     class="node">
    <circle
       style="fill:#f79767;stroke:#f36924;stroke-width:2px"
       id="circle1376"
       r="25"
       cy="0"
       cx="0"
       class="b-outline" />
    <text
       style="font-size:10px;font-family:'Helvetica Neue', Helvetica, Arial, sans-serif;text-anchor:middle;fill:#ffffff"
       id="text1378"
       font-size="10px"
       y="5"
       x="0"
       pointer-events="none"
       class="caption" />
  </g>
  <g
     id="g1386"
     transform="translate(338.16781,-299.75352)"
     aria-label="graph-node571915"
     class="node">
    <circle
       style="fill:#f79767;stroke:#f36924;stroke-width:2px"
       id="circle1382"
       r="25"
       cy="0"
       cx="0"
       class="b-outline" />
    <text
       style="font-size:10px;font-family:'Helvetica Neue', Helvetica, Arial, sans-serif;text-anchor:middle;fill:#ffffff"
       id="text1384"
       font-size="10px"
       y="5"
       x="0"
       pointer-events="none"
       class="caption">CTCCA…</text>
  </g>
  <g
     id="g1392"
     transform="translate(-518.23456,-288.29499)"
     aria-label="graph-node571906"
     class="node">
    <circle
       style="fill:#f79767;stroke:#f36924;stroke-width:2px"
       id="circle1388"
       r="25"
       cy="0"
       cx="0"
       class="b-outline" />
    <text
       style="font-size:10px;font-family:'Helvetica Neue', Helvetica, Arial, sans-serif;text-anchor:middle;fill:#ffffff"
       id="text1390"
       font-size="10px"
       y="5"
       x="0"
       pointer-events="none"
       class="caption">TACCTT…</text>
  </g>
  <g
     id="g1398"
     transform="translate(-382.02078,-293.12874)"
     aria-label="graph-node571907"
     class="node">
    <circle
       style="fill:#f79767;stroke:#f36924;stroke-width:2px"
       id="circle1394"
       r="25"
       cy="0"
       cx="0"
       class="b-outline" />
    <text
       style="font-size:10px;font-family:'Helvetica Neue', Helvetica, Arial, sans-serif;text-anchor:middle;fill:#ffffff"
       id="text1396"
       font-size="10px"
       y="5"
       x="0"
       pointer-events="none"
       class="caption">GCTGTC</text>
  </g>
  <g
     id="g1404"
     transform="translate(-132.24033,-296.02815)"
     aria-label="graph-node571909"
     class="node">
    <circle
       style="fill:#f79767;stroke:#f36924;stroke-width:2px"
       id="circle1400"
       r="25"
       cy="0"
       cx="0"
       class="b-outline" />
    <text
       style="font-size:10px;font-family:'Helvetica Neue', Helvetica, Arial, sans-serif;text-anchor:middle;fill:#ffffff"
       id="text1402"
       font-size="10px"
       y="5"
       x="0"
       pointer-events="none"
       class="caption">CCCAG…</text>
  </g>
  <g
     id="g1410"
     transform="translate(577.21627,-305.52503)"
     aria-label="graph-node571918"
     class="node">
    <circle
       style="fill:#f79767;stroke:#f36924;stroke-width:2px"
       id="circle1406"
       r="25"
       cy="0"
       cx="0"
       class="b-outline" />
    <text
       style="font-size:10px;font-family:'Helvetica Neue', Helvetica, Arial, sans-serif;text-anchor:middle;fill:#ffffff"
       id="text1408"
       font-size="10px"
       y="5"
       x="0"
       pointer-events="none"
       class="caption">CTCCA…</text>
  </g>
  <g
     id="g1416"
     transform="translate(100.27462,-296.48886)"
     aria-label="graph-node571912"
     class="node">
    <circle
       style="fill:#f79767;stroke:#f36924;stroke-width:2px"
       id="circle1412"
       r="25"
       cy="0"
       cx="0"
       class="b-outline" />
    <text
       style="font-size:10px;font-family:'Helvetica Neue', Helvetica, Arial, sans-serif;text-anchor:middle;fill:#ffffff"
       id="text1414"
       font-size="10px"
       y="5"
       x="0"
       pointer-events="none"
       class="caption">CCCTGA</text>
  </g>
  <g
     id="g1422"
     transform="translate(-513.31514,-157.3293)"
     aria-label="graph-node571905"
     class="node">
    <circle
       style="fill:#f79767;stroke:#f36924;stroke-width:2px"
       id="circle1418"
       r="25"
       cy="0"
       cx="0"
       class="b-outline" />
    <text
       style="font-size:10px;font-family:'Helvetica Neue', Helvetica, Arial, sans-serif;text-anchor:middle;fill:#ffffff"
       id="text1420"
       font-size="10px"
       y="5"
       x="0"
       pointer-events="none"
       class="caption">CCTGC…</text>
  </g>
  <g
     id="g1428"
     transform="translate(624.92023,-193.10067)"
     aria-label="graph-node571919"
     class="node">
    <circle
       style="fill:#f79767;stroke:#f36924;stroke-width:2px"
       id="circle1424"
       r="25"
       cy="0"
       cx="0"
       class="b-outline" />
    <text
       style="font-size:10px;font-family:'Helvetica Neue', Helvetica, Arial, sans-serif;text-anchor:middle;fill:#ffffff"
       id="text1426"
       font-size="10px"
       y="5"
       x="0"
       pointer-events="none"
       class="caption">GCTGT…</text>
  </g>
  <g
     id="g1434"
     transform="translate(901.24732,-320.46039)"
     aria-label="graph-node1624260"
     class="node">
    <circle
       style="fill:#d9c8ae;stroke:#c0a378;stroke-width:2px"
       id="circle1430"
       r="25"
       cy="0"
       cx="0"
       class="b-outline" />
    <text
       style="font-size:10px;font-family:'Helvetica Neue', Helvetica, Arial, sans-serif;text-anchor:middle;fill:#2a2c34"
       id="text1432"
       font-size="10px"
       y="5"
       x="0"
       pointer-events="none"
       class="caption">3920</text>
  </g>
  <g
     id="g1440"
     transform="translate(41.086245,-448.08997)"
     aria-label="graph-node1620350"
     class="node">
    <circle
       style="fill:#d9c8ae;stroke:#c0a378;stroke-width:2px"
       id="circle1436"
       r="25"
       cy="0"
       cx="0"
       class="b-outline" />
    <text
       style="font-size:10px;font-family:'Helvetica Neue', Helvetica, Arial, sans-serif;text-anchor:middle;fill:#2a2c34"
       id="text1438"
       font-size="10px"
       y="5"
       x="0"
       pointer-events="none"
       class="caption">10</text>
  </g>
</svg>
